<svg width="512" height="512" viewBox="0 0 512 512" xmlns="http://www.w3.org/2000/svg"><rect width="512" height="512" rx="96" fill="#0B1D3A"/><g transform="translate(116,80) scale(1.33)"><path d="M105 8 L187 56 M187 56 L187 154 M187 154 L105 202 M105 202 L23 154 M23 154 L23 56 M23 56 L105 8" stroke="#FFFFFF" stroke-width="8" stroke-linecap="round" stroke-linejoin="round"/><path d="M105 45 L155 74 M155 126 L105 155 M55 126 L55 74" stroke="#176BFF" stroke-width="6" stroke-linecap="round"/><path d="M55 74 L105 45 M155 74 L155 126 M105 155 L55 126" stroke="#FFFFFF" stroke-width="6" stroke-linecap="round"/><circle cx="105" cy="8" r="14" fill="#176BFF"/><circle cx="187" cy="56" r="13" fill="#FFFFFF"/><circle cx="187" cy="154" r="11" fill="none" stroke="#FFFFFF" stroke-width="6"/><circle cx="105" cy="202" r="14" fill="#FF8A00"/><circle cx="23" cy="154" r="11" fill="none" stroke="#FFFFFF" stroke-width="6"/><circle cx="23" cy="56" r="13" fill="#FFFFFF"/><rect x="75" y="78" width="18" height="18" rx="3" fill="#FFFFFF"/><rect x="101" y="78" width="18" height="18" rx="3" fill="#FFFFFF"/><rect x="127" y="78" width="18" height="18" rx="3" fill="#FFFFFF"/><rect x="75" y="104" width="18" height="18" rx="3" fill="#FFFFFF"/><rect x="101" y="104" width="18" height="18" rx="3" fill="#FF8A00"/><rect x="127" y="104" width="18" height="18" rx="3" fill="#FFFFFF"/><rect x="75" y="130" width="18" height="18" rx="3" fill="#FFFFFF"/><rect x="101" y="130" width="18" height="18" rx="3" fill="#FFFFFF"/><rect x="127" y="130" width="18" height="18" rx="3" fill="#FFFFFF"/></g></svg>